<svg id="图层_1" data-name="图层 1" xmlns="http://www.w3.org/2000/svg" xmlns:xlink="http://www.w3.org/1999/xlink" viewBox="0 0 747.11082 132.45482"><defs><style>.cls-1,.cls-2,.cls-3,.cls-4{fill:none;}.cls-2{stroke:#231815;stroke-width:2px;stroke-dasharray:2 1;}.cls-3,.cls-4{stroke-linecap:round;}.cls-3{stroke-miterlimit:10;stroke-width:8px;opacity:0.52;stroke:url(#USGS_7_葡萄园);}.cls-4{stroke:#000;stroke-linejoin:round;stroke-width:5px;}.cls-5{fill:#999;}</style><pattern id="USGS_7_葡萄园" data-name="USGS 7 葡萄园" width="72" height="72" patternUnits="userSpaceOnUse" viewBox="0 0 72 72"><rect class="cls-1" width="72" height="72"/><line class="cls-2" x1="0.5" y1="70.5" x2="72.5" y2="70.5"/><line class="cls-2" x1="0.5" y1="67.5" x2="72.5" y2="67.5"/><line class="cls-2" x1="0.5" y1="64.5" x2="72.5" y2="64.5"/><line class="cls-2" x1="0.5" y1="61.5" x2="72.5" y2="61.5"/><line class="cls-2" x1="0.5" y1="58.5" x2="72.5" y2="58.5"/><line class="cls-2" x1="0.5" y1="55.5" x2="72.5" y2="55.5"/><line class="cls-2" x1="0.5" y1="52.5" x2="72.5" y2="52.5"/><line class="cls-2" x1="0.5" y1="49.5" x2="72.5" y2="49.5"/><line class="cls-2" x1="0.5" y1="46.5" x2="72.5" y2="46.5"/><line class="cls-2" x1="0.5" y1="43.5" x2="72.5" y2="43.5"/><line class="cls-2" x1="0.5" y1="40.5" x2="72.5" y2="40.5"/><line class="cls-2" x1="0.5" y1="37.5" x2="72.5" y2="37.5"/><line class="cls-2" x1="0.5" y1="34.5" x2="72.5" y2="34.5"/><line class="cls-2" x1="0.5" y1="31.5" x2="72.5" y2="31.5"/><line class="cls-2" x1="0.5" y1="28.5" x2="72.5" y2="28.5"/><line class="cls-2" x1="0.5" y1="25.5" x2="72.5" y2="25.5"/><line class="cls-2" x1="0.5" y1="22.5" x2="72.5" y2="22.5"/><line class="cls-2" x1="0.5" y1="19.5" x2="72.5" y2="19.5"/><line class="cls-2" x1="0.5" y1="16.5" x2="72.5" y2="16.5"/><line class="cls-2" x1="0.5" y1="13.5" x2="72.5" y2="13.5"/><line class="cls-2" x1="0.5" y1="10.5" x2="72.5" y2="10.5"/><line class="cls-2" x1="0.5" y1="7.5" x2="72.5" y2="7.5"/><line class="cls-2" x1="0.5" y1="4.5" x2="72.5" y2="4.5"/><line class="cls-2" x1="0.5" y1="1.5" x2="72.5" y2="1.5"/><line class="cls-2" x1="-71.5" y1="70.5" x2="0.5" y2="70.5"/><line class="cls-2" x1="-71.5" y1="67.5" x2="0.5" y2="67.5"/><line class="cls-2" x1="-71.5" y1="64.5" x2="0.5" y2="64.5"/><line class="cls-2" x1="-71.5" y1="61.5" x2="0.5" y2="61.5"/><line class="cls-2" x1="-71.5" y1="58.5" x2="0.5" y2="58.5"/><line class="cls-2" x1="-71.5" y1="55.5" x2="0.5" y2="55.5"/><line class="cls-2" x1="-71.5" y1="52.5" x2="0.5" y2="52.5"/><line class="cls-2" x1="-71.5" y1="49.5" x2="0.5" y2="49.5"/><line class="cls-2" x1="-71.5" y1="46.5" x2="0.5" y2="46.5"/><line class="cls-2" x1="-71.5" y1="43.5" x2="0.5" y2="43.5"/><line class="cls-2" x1="-71.5" y1="40.5" x2="0.5" y2="40.5"/><line class="cls-2" x1="-71.5" y1="37.5" x2="0.5" y2="37.5"/><line class="cls-2" x1="-71.5" y1="34.5" x2="0.5" y2="34.5"/><line class="cls-2" x1="-71.5" y1="31.5" x2="0.5" y2="31.5"/><line class="cls-2" x1="-71.5" y1="28.5" x2="0.5" y2="28.5"/><line class="cls-2" x1="-71.5" y1="25.5" x2="0.5" y2="25.5"/><line class="cls-2" x1="-71.5" y1="22.5" x2="0.5" y2="22.5"/><line class="cls-2" x1="-71.5" y1="19.5" x2="0.5" y2="19.5"/><line class="cls-2" x1="-71.5" y1="16.5" x2="0.5" y2="16.5"/><line class="cls-2" x1="-71.5" y1="13.5" x2="0.5" y2="13.5"/><line class="cls-2" x1="-71.5" y1="10.5" x2="0.5" y2="10.5"/><line class="cls-2" x1="-71.5" y1="7.5" x2="0.5" y2="7.5"/><line class="cls-2" x1="-71.5" y1="4.5" x2="0.5" y2="4.5"/><line class="cls-2" x1="-71.5" y1="1.5" x2="0.5" y2="1.5"/></pattern></defs><path class="cls-3" d="M4,108.47539A103.1749,103.1749,0,0,0,107.17493,5.30049v0h0A63.74737,63.74737,0,0,0,170.9223,69.04782h0a39.42755,39.42755,0,0,0-39.42755,39.42755,24.31984,24.31984,0,0,0-24.31982-24.3198h0"/><path class="cls-4" d="M11.36964,113.04457A110.54457,110.54457,0,0,0,121.91421,2.5h0a68.31654,68.31654,0,0,0,68.31655,68.31655h0a42.228,42.228,0,0,0-42.228,42.228A26.08851,26.08851,0,0,0,121.91424,86.956h0a16.13952,16.13952,0,0,0,16.13952-16.13948v0h0a9.949,9.949,0,0,0,9.949,9.949h0"/><path d="M310.11864,67.70874q0,13.06641-4.77539,22.82227a33.82371,33.82371,0,0,1-13.71094,14.88281q-8.93555,5.127-21.24024,5.12695-18.86718,0-29.23828-11.27929T230.7827,67.70874q0-20.09619,10.42969-31.11328,10.42821-11.01416,29.2969-11.01564,18.86572,0,29.23828,11.13281Q310.11862,47.84547,310.11864,67.70874Zm-14.53125,0q0-14.76563-6.44532-22.76367-6.44678-7.998-18.63278-7.998-12.42333,0-18.86719,7.93946-6.44678,7.94091-6.44531,22.82226,0,14.88428,6.5332,23.20313,6.53321,8.32031,18.66211,8.32031,12.42188,0,18.8086-8.02734Q295.5859,83.17748,295.58739,67.70874Z"/><path d="M382.95067,79.01734q0,14.76563-6.88477,23.14453-6.88623,8.37888-19.13086,8.3789-7.03125,0-11.543-2.69531a19.26542,19.26542,0,0,1-7.207-7.85156h-.293q.11719,2.34375.20508,4.6289t.08789,4.62891v23.20311H324.64989V62.66968q0-6.09375-.46875-13.35938H337.189a84.97121,84.97121,0,0,1,.76172,10.19532h.23437q5.625-11.4258,19.7461-11.42578,12.12889,0,18.57421,7.998T382.95067,79.01734Zm-14.0625.11718q0-21.09375-14.82422-21.09375-7.91016,0-12.01172,5.44922T337.95067,79.3103q0,10.3711,3.98437,15.82032t11.89453,5.44923Q368.88818,100.57984,368.88817,79.13452Z"/><path d="M407.32567,81.88843q.293,9.19922,4.07226,14.15039a12.30134,12.30134,0,0,0,10.3418,4.95117,14.42561,14.42561,0,0,0,7.93945-2.22656,19.5164,19.5164,0,0,0,6.29883-7.5l10.60547,5.09766a34.71161,34.71161,0,0,1-6.91406,8.4375,23.38239,23.38239,0,0,1-8.05664,4.30664,36.88117,36.88117,0,0,1-10.92774,1.43554q-13.18359,0-20.332-8.291-7.1499-8.291-7.14844-23.291,0-15.11716,7.5-22.998,7.5-7.87941,20.44922-7.88086,12.832,0,19.62891,8.40821t6.79687,23.75975v1.64064ZM420.685,57.39624a11.648,11.648,0,0,0-9.43359,4.21875q-3.51562,4.21875-3.8086,11.66016h26.13282q-.58594-7.96729-3.63282-11.92383Q426.896,57.39624,420.685,57.39624Z"/><path d="M500.25535,109.3689V75.79468q0-9.14062-2.84179-13.125-2.84327-3.98437-8.99414-3.98438A12.23473,12.23473,0,0,0,478.019,63.783q-3.77929,5.09766-3.7793,13.82813V109.3689H460.76317V63.13843q0-6.97266-.52735-13.82813h12.832q.64454,8.78907.64454,11.60157h.23437q3.457-6.73681,8.02734-9.78516,4.57032-3.04541,11.77735-3.04687,10.01953,0,15.02933,5.918,5.00976,5.91944,5.00976,18.28125v37.08985Z"/><path class="cls-5" d="M551.52489,26.8103,571.271,75.32593q1.52343,3.57422,6.26953,17.63672,1.75782-5.68213,6.5625-17.63672L603.26317,26.8103h19.27734v82.5586H609.59129V54.64234q0-3.63282.11719-7.29493.11718-3.66063.23437-7.3535-1.34911,3.75-2.22656,6.123-.87891,2.37306-3.86719,10.04883l-20.918,53.20313H572.14989L550.4702,55.52124q-3.4585-8.73047-5.74219-15.52734.1172,3.63428.20508,7.207.08788,3.57422.08789,7.207v54.96094H532.13035V26.8103Z"/><path class="cls-5" d="M657.40379,109.3689H643.10692V26.8103h14.29687Z"/><path class="cls-5" d="M716.3491,26.8103l30.76172,82.5586H732.814l-8.20313-22.5586H691.271l-8.14453,22.5586H668.82957l30.82032-82.5586ZM708.02879,37.533q-1.05468,3.39844-1.99219,6.32813-.9375,2.93117-2.22656,6.44532l-9.19922,25.66406h26.83594L712.189,50.365Q710.25536,45.09156,708.02879,37.533Z"/></svg>